<svg width="830" height="128" viewBox="0 0 64 64" fill="currentColor" xmlns="http://www.w3.org/2000/svg" preserveAspectRatio="xMidYMid meet" style="display: block; margin: 0 auto;">
  <!-- <path d="M379.138 20.6317H389.65V25.7437C390.85 23.9677 392.458 22.5757 394.474 21.5677C396.49 20.5597 398.722 20.0557 401.17 20.0557C403.906 20.0557 406.306 20.6317 408.37 21.7837C410.434 22.8877 412.042 24.4717 413.194 26.5357C414.346 28.5517 414.922 30.9037 414.922 33.5917V57.9997H404.338V36.3277C404.338 34.2157 403.738 32.5357 402.538 31.2877C401.386 30.0397 399.826 29.4157 397.858 29.4157C396.082 29.4157 394.594 29.8957 393.394 30.8557C392.194 31.7677 391.258 33.1357 390.586 34.9597C389.962 36.7837 389.65 38.9917 389.65 41.5837V57.9997H379.138V20.6317Z"/>
  <path d="M361.489 20.6322H372.001V58.0003H361.489V20.6322ZM361.201 5.65625H372.433V15.9522H361.201V5.65625Z"/>
  <path d="M338.206 58.5757C335.998 58.5757 333.982 58.1677 332.158 57.3517C330.382 56.5357 329.038 55.4797 328.126 54.1837V57.9997H317.614V5.51172H328.126V24.3037C329.23 23.0077 330.67 21.9757 332.446 21.2077C334.222 20.4397 336.19 20.0557 338.35 20.0557C341.902 20.0557 344.998 20.8477 347.638 22.4317C350.326 24.0157 352.39 26.2717 353.83 29.1997C355.318 32.0797 356.062 35.4397 356.062 39.2797C356.062 43.1677 355.318 46.5757 353.83 49.5037C352.39 52.3837 350.326 54.6157 347.638 56.1997C344.95 57.7837 341.806 58.5757 338.206 58.5757ZM336.478 49.5757C338.254 49.5757 339.814 49.1437 341.158 48.2797C342.502 47.4157 343.534 46.2157 344.254 44.6797C344.974 43.0957 345.334 41.2957 345.334 39.2797C345.334 36.2077 344.518 33.7357 342.886 31.8637C341.254 29.9917 339.118 29.0557 336.478 29.0557C334.702 29.0557 333.142 29.4877 331.798 30.3517C330.454 31.2157 329.398 32.4157 328.63 33.9517C327.91 35.4877 327.55 37.2637 327.55 39.2797C327.55 41.3437 327.91 43.1437 328.63 44.6797C329.398 46.2157 330.454 47.4157 331.798 48.2797C333.142 49.1437 334.702 49.5757 336.478 49.5757Z"/>
  <path d="M295.331 58.5757C293.123 58.5757 291.107 58.1677 289.283 57.3517C287.507 56.5357 286.163 55.4797 285.251 54.1837V57.9997H274.739V5.51172H285.251V24.3037C286.355 23.0077 287.795 21.9757 289.571 21.2077C291.347 20.4397 293.315 20.0557 295.475 20.0557C299.027 20.0557 302.123 20.8477 304.763 22.4317C307.451 24.0157 309.515 26.2717 310.955 29.1997C312.443 32.0797 313.187 35.4397 313.187 39.2797C313.187 43.1677 312.443 46.5757 310.955 49.5037C309.515 52.3837 307.451 54.6157 304.763 56.1997C302.075 57.7837 298.931 58.5757 295.331 58.5757ZM293.603 49.5757C295.379 49.5757 296.939 49.1437 298.283 48.2797C299.627 47.4157 300.659 46.2157 301.379 44.6797C302.099 43.0957 302.459 41.2957 302.459 39.2797C302.459 36.2077 301.643 33.7357 300.011 31.8637C298.379 29.9917 296.243 29.0557 293.603 29.0557C291.827 29.0557 290.267 29.4877 288.923 30.3517C287.579 31.2157 286.523 32.4157 285.755 33.9517C285.035 35.4877 284.675 37.2637 284.675 39.2797C284.675 41.3437 285.035 43.1437 285.755 44.6797C286.523 46.2157 287.579 47.4157 288.923 48.2797C290.267 49.1437 291.827 49.5757 293.603 49.5757Z"/>
  <path d="M250.98 58.5757C247.236 58.5757 243.876 57.7357 240.9 56.0557C237.972 54.3757 235.692 52.0717 234.06 49.1437C232.428 46.2157 231.612 42.9277 231.612 39.2797C231.612 35.6317 232.428 32.3437 234.06 29.4157C235.74 26.4877 238.044 24.2077 240.972 22.5757C243.9 20.8957 247.236 20.0557 250.98 20.0557C254.676 20.0557 257.988 20.8957 260.916 22.5757C263.892 24.2557 266.22 26.5597 267.9 29.4877C269.58 32.3677 270.42 35.6317 270.42 39.2797C270.42 42.9277 269.58 46.2157 267.9 49.1437C266.22 52.0717 263.892 54.3757 260.916 56.0557C257.988 57.7357 254.676 58.5757 250.98 58.5757ZM250.98 49.5757C252.708 49.5757 254.22 49.1437 255.516 48.2797C256.86 47.4157 257.892 46.2157 258.612 44.6797C259.332 43.0957 259.692 41.2957 259.692 39.2797C259.692 37.3117 259.332 35.5597 258.612 34.0237C257.892 32.4397 256.86 31.2157 255.516 30.3517C254.172 29.4877 252.66 29.0557 250.98 29.0557C249.252 29.0557 247.716 29.4877 246.372 30.3517C245.076 31.2157 244.068 32.4397 243.348 34.0237C242.628 35.5597 242.268 37.3117 242.268 39.2797C242.268 41.2957 242.628 43.0957 243.348 44.6797C244.068 46.2157 245.076 47.4157 246.372 48.2797C247.668 49.1437 249.204 49.5757 250.98 49.5757Z"/>
  <path d="M166 6.08789H181.264L193.144 37.8399C194.488 41.4879 195.544 44.8479 196.312 47.9199C197.128 44.8479 198.184 41.4879 199.48 37.8399L211.288 6.08789H226.12V57.9999H215.176V33.0159C215.176 29.1279 215.248 25.5759 215.392 22.3599C214.384 25.5759 213.256 28.9359 212.008 32.4399L202.432 57.9999H189.76L180.112 32.4399C178.768 28.7919 177.664 25.4319 176.8 22.3599C176.944 25.5759 177.016 29.1279 177.016 33.0159V57.9999H166V6.08789Z"/>
   -->
  <path d="M136.003 29.8667H101.87V64H136.003V29.8667Z"/>
  <path d="M0 63.9998V33.9485L33.9486 0H63.9998V30.0513L30.0513 63.9998H0Z"/>
  <path d="M51.1992 63.9998V33.9486L85.1478 0H115.199V30.0513L81.2505 63.9998H51.1992Z"/>
</svg>